<?xml version="1.0" encoding="UTF-8"?>
<svg xmlns="http://www.w3.org/2000/svg" xmlns:xlink="http://www.w3.org/1999/xlink" width="106pt" height="102pt" viewBox="0 0 106 102" version="1.1">
<g id="surface66">
<path style="fill:none;stroke-width:1.1956;stroke-linecap:butt;stroke-linejoin:miter;stroke:rgb(0.999451%,0.999451%,0.999451%);stroke-opacity:1;stroke-miterlimit:10;" d="M -0.00034375 -0.00121875 L 17.288719 -9.981687 " transform="matrix(1,0,0,-1,18.223,91.073)"/>
<path style="fill:none;stroke-width:1.1956;stroke-linecap:butt;stroke-linejoin:miter;stroke:rgb(0.999451%,0.999451%,0.999451%);stroke-opacity:1;stroke-miterlimit:10;" d="M 4.198875 2.424563 L 17.292625 -5.134031 " transform="matrix(1,0,0,-1,18.223,91.073)"/>
<path style="fill:none;stroke-width:1.1956;stroke-linecap:butt;stroke-linejoin:miter;stroke:rgb(0.999451%,0.999451%,0.999451%);stroke-opacity:1;stroke-miterlimit:10;" d="M 17.288719 -9.981687 L 34.581687 -0.00121875 " transform="matrix(1,0,0,-1,18.223,91.073)"/>
<path style="fill:none;stroke-width:1.1956;stroke-linecap:butt;stroke-linejoin:miter;stroke:rgb(0.999451%,0.999451%,0.999451%);stroke-opacity:1;stroke-miterlimit:10;" d="M 34.581687 -0.00121875 L 51.87075 -9.981687 " transform="matrix(1,0,0,-1,18.223,91.073)"/>
<path style="fill:none;stroke-width:1.1956;stroke-linecap:butt;stroke-linejoin:miter;stroke:rgb(0.999451%,0.999451%,0.999451%);stroke-opacity:1;stroke-miterlimit:10;" d="M 51.87075 -9.981687 L 69.163719 -0.00121875 " transform="matrix(1,0,0,-1,18.223,91.073)"/>
<path style="fill:none;stroke-width:1.1956;stroke-linecap:butt;stroke-linejoin:miter;stroke:rgb(0.999451%,0.999451%,0.999451%);stroke-opacity:1;stroke-miterlimit:10;" d="M 51.87075 -5.134031 L 64.9645 2.424563 " transform="matrix(1,0,0,-1,18.223,91.073)"/>
<path style="fill:none;stroke-width:1.1956;stroke-linecap:butt;stroke-linejoin:miter;stroke:rgb(0.999451%,0.999451%,0.999451%);stroke-opacity:1;stroke-miterlimit:10;" d="M 69.163719 -0.00121875 L 69.163719 19.963625 " transform="matrix(1,0,0,-1,18.223,91.073)"/>
<path style="fill:none;stroke-width:1.1956;stroke-linecap:butt;stroke-linejoin:miter;stroke:rgb(0.999451%,0.999451%,0.999451%);stroke-opacity:1;stroke-miterlimit:10;" d="M 69.163719 19.963625 L 86.452781 29.948 " transform="matrix(1,0,0,-1,18.223,91.073)"/>
<path style="fill:none;stroke-width:1.1956;stroke-linecap:butt;stroke-linejoin:miter;stroke:rgb(0.999451%,0.999451%,0.999451%);stroke-opacity:1;stroke-miterlimit:10;" d="M 86.452781 29.948 L 86.452781 49.912844 " transform="matrix(1,0,0,-1,18.223,91.073)"/>
<path style="fill:none;stroke-width:1.1956;stroke-linecap:butt;stroke-linejoin:miter;stroke:rgb(0.999451%,0.999451%,0.999451%);stroke-opacity:1;stroke-miterlimit:10;" d="M 82.253562 32.369875 L 82.253562 47.490969 " transform="matrix(1,0,0,-1,18.223,91.073)"/>
<path style="fill:none;stroke-width:1.1956;stroke-linecap:butt;stroke-linejoin:miter;stroke:rgb(0.999451%,0.999451%,0.999451%);stroke-opacity:1;stroke-miterlimit:10;" d="M 86.452781 49.912844 L 69.163719 59.897219 " transform="matrix(1,0,0,-1,18.223,91.073)"/>
<path style="fill:none;stroke-width:1.1956;stroke-linecap:butt;stroke-linejoin:miter;stroke:rgb(0.999451%,0.999451%,0.999451%);stroke-opacity:1;stroke-miterlimit:10;" d="M 69.163719 59.897219 L 69.163719 79.862063 " transform="matrix(1,0,0,-1,18.223,91.073)"/>
<path style="fill:none;stroke-width:1.1956;stroke-linecap:butt;stroke-linejoin:miter;stroke:rgb(0.999451%,0.999451%,0.999451%);stroke-opacity:1;stroke-miterlimit:10;" d="M 69.163719 79.862063 L 51.87075 89.842531 " transform="matrix(1,0,0,-1,18.223,91.073)"/>
<path style="fill:none;stroke-width:1.1956;stroke-linecap:butt;stroke-linejoin:miter;stroke:rgb(0.999451%,0.999451%,0.999451%);stroke-opacity:1;stroke-miterlimit:10;" d="M 64.9645 77.436281 L 51.87075 84.998781 " transform="matrix(1,0,0,-1,18.223,91.073)"/>
<path style="fill:none;stroke-width:1.1956;stroke-linecap:butt;stroke-linejoin:miter;stroke:rgb(0.999451%,0.999451%,0.999451%);stroke-opacity:1;stroke-miterlimit:10;" d="M 51.87075 89.842531 L 34.581687 79.862063 " transform="matrix(1,0,0,-1,18.223,91.073)"/>
<path style="fill:none;stroke-width:1.1956;stroke-linecap:butt;stroke-linejoin:miter;stroke:rgb(0.999451%,0.999451%,0.999451%);stroke-opacity:1;stroke-miterlimit:10;" d="M 34.581687 79.862063 L 17.288719 89.842531 " transform="matrix(1,0,0,-1,18.223,91.073)"/>
<path style="fill:none;stroke-width:1.1956;stroke-linecap:butt;stroke-linejoin:miter;stroke:rgb(0.999451%,0.999451%,0.999451%);stroke-opacity:1;stroke-miterlimit:10;" d="M 17.288719 89.842531 L -0.00034375 79.862063 " transform="matrix(1,0,0,-1,18.223,91.073)"/>
<path style="fill:none;stroke-width:1.1956;stroke-linecap:butt;stroke-linejoin:miter;stroke:rgb(0.999451%,0.999451%,0.999451%);stroke-opacity:1;stroke-miterlimit:10;" d="M 17.292625 84.998781 L 4.198875 77.436281 " transform="matrix(1,0,0,-1,18.223,91.073)"/>
<path style="fill:none;stroke-width:1.1956;stroke-linecap:butt;stroke-linejoin:miter;stroke:rgb(0.999451%,0.999451%,0.999451%);stroke-opacity:1;stroke-miterlimit:10;" d="M -0.00034375 79.862063 L -0.00034375 59.897219 " transform="matrix(1,0,0,-1,18.223,91.073)"/>
<path style="fill:none;stroke-width:1.1956;stroke-linecap:butt;stroke-linejoin:miter;stroke:rgb(0.999451%,0.999451%,0.999451%);stroke-opacity:1;stroke-miterlimit:10;" d="M -0.00034375 59.897219 L -17.289406 49.912844 " transform="matrix(1,0,0,-1,18.223,91.073)"/>
<path style="fill:none;stroke-width:1.1956;stroke-linecap:butt;stroke-linejoin:miter;stroke:rgb(0.999451%,0.999451%,0.999451%);stroke-opacity:1;stroke-miterlimit:10;" d="M -17.289406 49.912844 L -17.289406 29.948 " transform="matrix(1,0,0,-1,18.223,91.073)"/>
<path style="fill:none;stroke-width:1.1956;stroke-linecap:butt;stroke-linejoin:miter;stroke:rgb(0.999451%,0.999451%,0.999451%);stroke-opacity:1;stroke-miterlimit:10;" d="M -13.094094 47.490969 L -13.094094 32.369875 " transform="matrix(1,0,0,-1,18.223,91.073)"/>
<path style="fill:none;stroke-width:1.1956;stroke-linecap:butt;stroke-linejoin:miter;stroke:rgb(0.999451%,0.999451%,0.999451%);stroke-opacity:1;stroke-miterlimit:10;" d="M -17.289406 29.948 L -0.00034375 19.963625 " transform="matrix(1,0,0,-1,18.223,91.073)"/>
<path style="fill:none;stroke-width:1.1956;stroke-linecap:butt;stroke-linejoin:miter;stroke:rgb(0.999451%,0.999451%,0.999451%);stroke-opacity:1;stroke-miterlimit:10;" d="M -0.00034375 19.963625 L 17.288719 29.948 " transform="matrix(1,0,0,-1,18.223,91.073)"/>
<path style="fill:none;stroke-width:1.1956;stroke-linecap:butt;stroke-linejoin:miter;stroke:rgb(0.999451%,0.999451%,0.999451%);stroke-opacity:1;stroke-miterlimit:10;" d="M 17.288719 29.948 L 17.288719 49.912844 " transform="matrix(1,0,0,-1,18.223,91.073)"/>
<path style="fill:none;stroke-width:1.1956;stroke-linecap:butt;stroke-linejoin:miter;stroke:rgb(0.999451%,0.999451%,0.999451%);stroke-opacity:1;stroke-miterlimit:10;" d="M 17.288719 49.912844 L -0.00034375 59.897219 " transform="matrix(1,0,0,-1,18.223,91.073)"/>
<path style="fill:none;stroke-width:1.1956;stroke-linecap:butt;stroke-linejoin:miter;stroke:rgb(0.999451%,0.999451%,0.999451%);stroke-opacity:1;stroke-miterlimit:10;" d="M 13.093406 47.490969 L -0.00034375 55.049563 " transform="matrix(1,0,0,-1,18.223,91.073)"/>
<path style="fill:none;stroke-width:1.1956;stroke-linecap:butt;stroke-linejoin:miter;stroke:rgb(0.999451%,0.999451%,0.999451%);stroke-opacity:1;stroke-miterlimit:10;" d="M -0.00034375 59.897219 L 17.288719 49.912844 " transform="matrix(1,0,0,-1,18.223,91.073)"/>
<path style="fill:none;stroke-width:1.1956;stroke-linecap:butt;stroke-linejoin:miter;stroke:rgb(0.999451%,0.999451%,0.999451%);stroke-opacity:1;stroke-miterlimit:10;" d="M 17.288719 49.912844 L 34.581687 59.897219 " transform="matrix(1,0,0,-1,18.223,91.073)"/>
<path style="fill:none;stroke-width:1.1956;stroke-linecap:butt;stroke-linejoin:miter;stroke:rgb(0.999451%,0.999451%,0.999451%);stroke-opacity:1;stroke-miterlimit:10;" d="M 34.581687 59.897219 L 34.581687 79.862063 " transform="matrix(1,0,0,-1,18.223,91.073)"/>
<path style="fill:none;stroke-width:1.1956;stroke-linecap:butt;stroke-linejoin:miter;stroke:rgb(0.999451%,0.999451%,0.999451%);stroke-opacity:1;stroke-miterlimit:10;" d="M 30.382469 62.319094 L 30.382469 77.440188 " transform="matrix(1,0,0,-1,18.223,91.073)"/>
<path style="fill:none;stroke-width:1.1956;stroke-linecap:butt;stroke-linejoin:miter;stroke:rgb(0.999451%,0.999451%,0.999451%);stroke-opacity:1;stroke-miterlimit:10;" d="M 34.581687 79.862063 L 34.581687 59.897219 " transform="matrix(1,0,0,-1,18.223,91.073)"/>
<path style="fill:none;stroke-width:1.1956;stroke-linecap:butt;stroke-linejoin:miter;stroke:rgb(0.999451%,0.999451%,0.999451%);stroke-opacity:1;stroke-miterlimit:10;" d="M 34.581687 59.897219 L 51.87075 49.912844 " transform="matrix(1,0,0,-1,18.223,91.073)"/>
<path style="fill:none;stroke-width:1.1956;stroke-linecap:butt;stroke-linejoin:miter;stroke:rgb(0.999451%,0.999451%,0.999451%);stroke-opacity:1;stroke-miterlimit:10;" d="M 51.87075 49.912844 L 69.163719 59.897219 " transform="matrix(1,0,0,-1,18.223,91.073)"/>
<path style="fill:none;stroke-width:1.1956;stroke-linecap:butt;stroke-linejoin:miter;stroke:rgb(0.999451%,0.999451%,0.999451%);stroke-opacity:1;stroke-miterlimit:10;" d="M 51.87075 54.7605 L 64.9645 62.319094 " transform="matrix(1,0,0,-1,18.223,91.073)"/>
<path style="fill:none;stroke-width:1.1956;stroke-linecap:butt;stroke-linejoin:miter;stroke:rgb(0.999451%,0.999451%,0.999451%);stroke-opacity:1;stroke-miterlimit:10;" d="M 69.163719 59.897219 L 51.87075 49.912844 " transform="matrix(1,0,0,-1,18.223,91.073)"/>
<path style="fill:none;stroke-width:1.1956;stroke-linecap:butt;stroke-linejoin:miter;stroke:rgb(0.999451%,0.999451%,0.999451%);stroke-opacity:1;stroke-miterlimit:10;" d="M 51.87075 49.912844 L 51.87075 29.948 " transform="matrix(1,0,0,-1,18.223,91.073)"/>
<path style="fill:none;stroke-width:1.1956;stroke-linecap:butt;stroke-linejoin:miter;stroke:rgb(0.999451%,0.999451%,0.999451%);stroke-opacity:1;stroke-miterlimit:10;" d="M 51.87075 29.948 L 69.163719 19.963625 " transform="matrix(1,0,0,-1,18.223,91.073)"/>
<path style="fill:none;stroke-width:1.1956;stroke-linecap:butt;stroke-linejoin:miter;stroke:rgb(0.999451%,0.999451%,0.999451%);stroke-opacity:1;stroke-miterlimit:10;" d="M 56.069969 32.369875 L 69.163719 24.811281 " transform="matrix(1,0,0,-1,18.223,91.073)"/>
<path style="fill:none;stroke-width:1.1956;stroke-linecap:butt;stroke-linejoin:miter;stroke:rgb(0.999451%,0.999451%,0.999451%);stroke-opacity:1;stroke-miterlimit:10;" d="M 69.163719 19.963625 L 51.87075 29.948 " transform="matrix(1,0,0,-1,18.223,91.073)"/>
<path style="fill:none;stroke-width:1.1956;stroke-linecap:butt;stroke-linejoin:miter;stroke:rgb(0.999451%,0.999451%,0.999451%);stroke-opacity:1;stroke-miterlimit:10;" d="M 51.87075 29.948 L 34.581687 19.963625 " transform="matrix(1,0,0,-1,18.223,91.073)"/>
<path style="fill:none;stroke-width:1.1956;stroke-linecap:butt;stroke-linejoin:miter;stroke:rgb(0.999451%,0.999451%,0.999451%);stroke-opacity:1;stroke-miterlimit:10;" d="M 34.581687 19.963625 L 34.581687 -0.00121875 " transform="matrix(1,0,0,-1,18.223,91.073)"/>
<path style="fill:none;stroke-width:1.1956;stroke-linecap:butt;stroke-linejoin:miter;stroke:rgb(0.999451%,0.999451%,0.999451%);stroke-opacity:1;stroke-miterlimit:10;" d="M 38.777 17.54175 L 38.777 2.424563 " transform="matrix(1,0,0,-1,18.223,91.073)"/>
<path style="fill:none;stroke-width:1.1956;stroke-linecap:butt;stroke-linejoin:miter;stroke:rgb(0.999451%,0.999451%,0.999451%);stroke-opacity:1;stroke-miterlimit:10;" d="M 34.581687 -0.00121875 L 34.581687 19.963625 " transform="matrix(1,0,0,-1,18.223,91.073)"/>
<path style="fill:none;stroke-width:1.1956;stroke-linecap:butt;stroke-linejoin:miter;stroke:rgb(0.999451%,0.999451%,0.999451%);stroke-opacity:1;stroke-miterlimit:10;" d="M 34.581687 19.963625 L 17.288719 29.948 " transform="matrix(1,0,0,-1,18.223,91.073)"/>
<path style="fill:none;stroke-width:1.1956;stroke-linecap:butt;stroke-linejoin:miter;stroke:rgb(0.999451%,0.999451%,0.999451%);stroke-opacity:1;stroke-miterlimit:10;" d="M 17.288719 29.948 L -0.00034375 19.963625 " transform="matrix(1,0,0,-1,18.223,91.073)"/>
<path style="fill:none;stroke-width:1.1956;stroke-linecap:butt;stroke-linejoin:miter;stroke:rgb(0.999451%,0.999451%,0.999451%);stroke-opacity:1;stroke-miterlimit:10;" d="M 17.292625 25.100344 L 4.198875 17.54175 " transform="matrix(1,0,0,-1,18.223,91.073)"/>
<path style="fill:none;stroke-width:1.1956;stroke-linecap:butt;stroke-linejoin:miter;stroke:rgb(0.999451%,0.999451%,0.999451%);stroke-opacity:1;stroke-miterlimit:10;" d="M -0.00034375 19.963625 L -0.00034375 -0.00121875 " transform="matrix(1,0,0,-1,18.223,91.073)"/>
</g>
</svg>
